# xmcd CD database file
#
# Track frame offsets:
#	150
#	1055
#	13155
#	29377
#	46085
#	57675
#	70272
#	92340
#	123447
#	136710
#	151495
#	162802
#	172520
#	185362
#	197242
#	221227
#	236715
#	246682
#
# Disc length: 3507 seconds
#
# Revision: 2
# Processed by: cddbd v1.5.2PL0 Copyright (c) Steve Scherf et al.
# Submitted via: CDex 1.70beta2
#
DISCID=f10db112
DTITLE=Kaiser - Mansfield - Slow Burn
DYEAR=2002
DGENRE=Blues
TTITLE0=Seen and Unseen
TTITLE1=Cover Me
TTITLE2=You're Gonna Need Somebody On Your Bond
TTITLE3=Threw It Away
TTITLE4=Witness Cloud
TTITLE5=God Don't Lie
TTITLE6=Jesus on the Mainline
TTITLE7=Slow Burn
TTITLE8=Blind Willie Glickman
TTITLE9=On My Dyin' Bed
TTITLE10=Great White Throne
TTITLE11=Wonderful God
TTITLE12=This Little Light
TTITLE13=PS 99
TTITLE14=Been Down That Road
TTITLE15=Slidin'
TTITLE16=Blessed Be
TTITLE17=Long Way From My Home
EXTD=YEAR: 2002
EXTT0=
EXTT1=
EXTT2=
EXTT3=
EXTT4=
EXTT5=
EXTT6=
EXTT7=
EXTT8=
EXTT9=
EXTT10=
EXTT11=
EXTT12=
EXTT13=
EXTT14=
EXTT15=
EXTT16=
EXTT17=
PLAYORDER=
